<svg xmlns="http://www.w3.org/2000/svg" version="1.1" xmlns:xlink="http://www.w3.org/1999/xlink" width="1000" height="1000"><style>
    #light-icon {
      display: inline;
    }
    #dark-icon {
      display: none;
    }

    @media (prefers-color-scheme: dark) {
      #light-icon {
        display: none;
      }
      #dark-icon {
        display: inline;
      }
    }
  </style><g id="light-icon"><svg xmlns="http://www.w3.org/2000/svg" version="1.1" xmlns:xlink="http://www.w3.org/1999/xlink" width="1000" height="1000"><g><g transform="matrix(19.607843137254903,0,0,19.607843137254903,137.2549019607843,-5.684341886080802e-14)"><svg xmlns="http://www.w3.org/2000/svg" version="1.1" xmlns:xlink="http://www.w3.org/1999/xlink" width="37" height="51"><svg width="37" height="51" viewBox="0 0 37 51" fill="none" xmlns="http://www.w3.org/2000/svg">
<circle cx="13.4783" cy="1.47826" r="1.47826" fill="#260808"></circle>
<circle cx="12.5" cy="7.5" r="1.5" fill="#260808"></circle>
<circle cx="17.5" cy="5.5" r="1.5" fill="#260808"></circle>
<path d="M22.8319 12.2598L9.9292 12C11.1239 16.4173 6.82301 36.1654 3 45H30C25.0301 34.3984 21.8761 13.8189 22.8319 12.2598Z" fill="#4B1912" stroke="#4B1912"></path>
<path d="M0 46C0.384 45.68 0.768 45.136 1.152 44.4C1.536 43.664 1.792 43.024 1.984 42.48C2.144 41.936 2.432 41.04 2.816 39.792C4.032 35.76 4.96 32.208 5.632 29.168C6.304 26.16 7.104 22.16 8 17.232C8.256 15.792 8 14.704 7.296 14H21.472C20.736 14.704 20.512 15.792 20.768 17.232C21.664 22.16 22.432 26.16 23.104 29.168C23.776 32.208 24.736 35.76 25.952 39.792C26.336 41.04 26.592 41.936 26.784 42.48C26.944 43.024 27.2 43.664 27.584 44.4C27.968 45.136 28.352 45.68 28.768 46H15.552C16.32 45.136 16.704 43.984 16.704 42.512C16.704 41.296 16.352 38.672 15.648 34.64H10.944C11.424 35.824 11.776 36.752 12.032 37.392C12.288 38.064 12.512 38.896 12.768 39.888C13.024 40.88 13.152 41.776 13.152 42.608C13.152 43.536 12.96 44.336 12.608 45.008C12.256 45.68 11.648 46 10.816 46H0ZM10.336 33.2H15.36C13.696 24.592 12.096 20.272 10.592 20.272C9.12 20.272 8.384 21.936 8.384 25.232C8.384 27.344 9.024 30 10.336 33.2Z" fill="black"></path>
</svg></svg></g></g></svg></g><g id="dark-icon"><svg xmlns="http://www.w3.org/2000/svg" version="1.1" xmlns:xlink="http://www.w3.org/1999/xlink" width="1000" height="1000"><g><g transform="matrix(19.607843137254903,0,0,19.607843137254903,137.2549019607843,-5.684341886080802e-14)"><svg xmlns="http://www.w3.org/2000/svg" version="1.1" xmlns:xlink="http://www.w3.org/1999/xlink" width="37" height="51"><svg width="37" height="51" viewBox="0 0 37 51" fill="none" xmlns="http://www.w3.org/2000/svg">
<circle cx="13.4783" cy="1.47826" r="1.47826" fill="#260808"></circle>
<circle cx="12.5" cy="7.5" r="1.5" fill="#260808"></circle>
<circle cx="17.5" cy="5.5" r="1.5" fill="#260808"></circle>
<path d="M22.8319 12.2598L9.9292 12C11.1239 16.4173 6.82301 36.1654 3 45H30C25.0301 34.3984 21.8761 13.8189 22.8319 12.2598Z" fill="#4B1912" stroke="#4B1912"></path>
<path d="M0 46C0.384 45.68 0.768 45.136 1.152 44.4C1.536 43.664 1.792 43.024 1.984 42.48C2.144 41.936 2.432 41.04 2.816 39.792C4.032 35.76 4.96 32.208 5.632 29.168C6.304 26.16 7.104 22.16 8 17.232C8.256 15.792 8 14.704 7.296 14H21.472C20.736 14.704 20.512 15.792 20.768 17.232C21.664 22.16 22.432 26.16 23.104 29.168C23.776 32.208 24.736 35.76 25.952 39.792C26.336 41.04 26.592 41.936 26.784 42.48C26.944 43.024 27.2 43.664 27.584 44.4C27.968 45.136 28.352 45.68 28.768 46H15.552C16.32 45.136 16.704 43.984 16.704 42.512C16.704 41.296 16.352 38.672 15.648 34.64H10.944C11.424 35.824 11.776 36.752 12.032 37.392C12.288 38.064 12.512 38.896 12.768 39.888C13.024 40.88 13.152 41.776 13.152 42.608C13.152 43.536 12.96 44.336 12.608 45.008C12.256 45.68 11.648 46 10.816 46H0ZM10.336 33.2H15.36C13.696 24.592 12.096 20.272 10.592 20.272C9.12 20.272 8.384 21.936 8.384 25.232C8.384 27.344 9.024 30 10.336 33.2Z" fill="#C8A589"></path>
</svg></svg></g></g></svg></g></svg>