<svg width="28" height="27" viewBox="0 0 28 27" fill="none" xmlns="http://www.w3.org/2000/svg">
<path d="M7.78 17V9.95H12.43V10.96H9.07V12.96H12.2V13.97H9.07V17H7.78ZM13.5027 17V9.95H16.5827C17.356 9.95 17.9527 10.1333 18.3727 10.5C18.7993 10.8667 19.0127 11.3767 19.0127 12.03C19.0127 12.4633 18.916 12.8333 18.7227 13.14C18.536 13.4467 18.266 13.6833 17.9127 13.85C17.5593 14.01 17.1427 14.09 16.6627 14.09L16.8027 13.9H17.1427C17.4227 13.9 17.6727 13.9733 17.8927 14.12C18.1127 14.2667 18.2927 14.49 18.4327 14.79L19.4627 17H18.0427L17.0027 14.71C16.9093 14.4767 16.766 14.3233 16.5727 14.25C16.386 14.1767 16.1593 14.14 15.8927 14.14H14.7927V17H13.5027ZM14.7927 13.19H16.3727C16.826 13.19 17.1693 13.0967 17.4027 12.91C17.6427 12.7167 17.7627 12.4367 17.7627 12.07C17.7627 11.7033 17.6427 11.4267 17.4027 11.24C17.1693 11.0533 16.826 10.96 16.3727 10.96H14.7927V13.19Z" fill="#260808"/>
<rect x="1" y="1" width="25.0389" height="25" rx="8" stroke="#260808" stroke-width="2"/>
</svg>
